<?xml version="1.0" encoding="utf-8"?>
<!-- Generator: Adobe Illustrator 21.0.0, SVG Export Plug-In . SVG Version: 6.00 Build 0)  -->
<svg version="1.1" id="图层_1" xmlns="http://www.w3.org/2000/svg" xmlns:xlink="http://www.w3.org/1999/xlink" x="0px" y="0px"
	 viewBox="0 0 227.1 158.9" style="enable-background:new 0 0 227.1 158.9;" xml:space="preserve">
<style type="text/css">
	.st0{fill:#eee;}
	.st1{display:none;}
  .st0_1{fill:#00ABEB;}
</style>
		<path class="st0" d="M165.9,141c23.1-6.2,27.9-27.3,16.2-51.4c-10.9-22.2,14.1-29.4,22-8C216.1,113.8,198.1,143.1,165.9,141z" >
       <stop offset="0%" stop-color="#25a4f6"></stop>
      <stop offset="100%" stop-color="#25a4f6"></stop>
    <animate dur="1000ms" from="90%" to="0%" repeatCount="indefinite" />
    </path>
    <!--<path id="" identify="" class="move_path" style="fill:#29f18f;" d="M0,0c1.2-.69,4.2-3.72,3.51-4.92s-4.81-.11-6,.58-2,2.43-1.28,3.63S7.86,0.69,0,0Z">-->
      <!--<animatemotion-->
         <!--id=""-->
         <!--path="M165.9,141c23.1-6.2,27.9-27.3,16.2-51.4c-10.9-22.2,14.1-29.4,22-8C216.1,113.8,198.1,143.1,165.9,141z"-->
         <!--begin="0s"-->
         <!--dur="5s"-->
         <!--rotate="auto"-->
         <!--repeatcount="indefinite">-->
    <!--</animatemotion>-->
    <!--</path>-->
		<path class="st0" d="M165.5,138.8c12.2-9.5,6.7-23.5,1.1-34.7c-6.6-13.7,9.6-21.6,15.5-6.3C190.6,119.6,180.8,135.7,165.5,138.8z"
			/>
		<path class="st0" d="M168.6,143.4c29.1-1.2,40.7-18.6,42.1-42.2c0.9-17.5,16.7-16.2,16.4,1.8C226.6,136.1,196.4,150.2,168.6,143.4
			z"/>
		<path class="st0" d="M105.9,11.7c28.3-28.9,58.3,1.6,31.5,27.3c-38.2,36-28.5,118.1,34.8,112.7C83.2,185.6,52,66.8,105.9,11.7z"/>
		<path class="st0" d="M83.4,42.1c-19,48.6-0.1,108.8,47.2,116.8c-49.2-0.8-80.1-36-83-83.2c-1-16.7,1.8-36.3,9.3-49.8
			c4-7.1,12.8-13.4,21.3-10.3C90,19.8,86.8,33.4,83.4,42.1z"/>
		<path class="st0" d="M37,54.4c7,2,7.2,10.4,7.4,19.3c0.7,31.1,15.6,62.8,43.1,75.4c-37.5-1.2-68.8-33.4-66.2-77.9
			C21.7,63.1,26.2,51.4,37,54.4z"/>
		<path class="st0" d="M76.9,150.1c-36.5,2.3-73.7-17.6-76.8-58.4c-0.5-7,1.8-14.4,9-15c7.6-0.7,9,7.1,10,13.1
			C24.1,120.6,45.3,145.1,76.9,150.1z"/>
		<path class="st0" d="M171.4,58.6c1.9-2.5,3.1-5.6,3.1-9c0.1-7.1-4.7-13.2-11.3-15c-3.4-0.9-7.2-0.6-10.5,0.2
			c-17,4.2-27,23-31.5,38.5c-10.2,35,3.5,80.6,54.9,76.1c-26.8-5.6-36.9-31-32.1-54c3.1-15.1,8.8-21.5,16.6-27.7
			C164.1,64.8,168.7,62.2,171.4,58.6z"/>
</svg>
